            <svg
              viewBox="0 0 100 100"
              fill="none"
              xmlns="http://www.w3.org/2000/svg"
            >
              <path
                d="M54.3205 9.23779C29.6567 9.23779 9.55859 29.3359 9.55859 53.9997C9.55859 78.6635 29.6567 98.7616 54.3205 98.7616C78.9843 98.7616 99.0824 78.6635 99.0824 53.9997C99.0824 29.3359 78.9843 9.23779 54.3205 9.23779ZM75.7167 43.7045L50.3367 69.0845C49.71 69.7111 48.8595 70.0692 47.9643 70.0692C47.0691 70.0692 46.2186 69.7111 45.5919 69.0845L32.9243 56.4168C31.6262 55.1187 31.6262 52.9702 32.9243 51.6721C34.2224 50.374 36.371 50.374 37.6691 51.6721L47.9643 61.9673L70.9719 38.9597C72.27 37.6616 74.4186 37.6616 75.7167 38.9597C77.0148 40.2578 77.0148 42.3616 75.7167 43.7045Z"
                fill="#23A26D"
              />
            </svg>