<svg
  viewBox="0 0 21 20"
  fill="none"
  xmlns="http://www.w3.org/2000/svg"
>
  <path
    fill-rule="evenodd"
    clip-rule="evenodd"
    d="M10.9811 0C5.45108 0 0.981079 4.47 0.981079 10C0.981079 15.53 5.45108 20 10.9811 20C16.5111 20 20.9811 15.53 20.9811 10C20.9811 4.47 16.5111 0 10.9811 0ZM15.2811 14.3C14.8911 14.69 14.2611 14.69 13.8711 14.3L10.9811 11.41L8.09108 14.3C7.70108 14.69 7.07108 14.69 6.68108 14.3C6.49383 14.1132 6.38859 13.8595 6.38859 13.595C6.38859 13.3305 6.49383 13.0768 6.68108 12.89L9.57108 10L6.68108 7.11C6.49383 6.92317 6.38859 6.66952 6.38859 6.405C6.38859 6.14048 6.49383 5.88683 6.68108 5.7C7.07108 5.31 7.70108 5.31 8.09108 5.7L10.9811 8.59L13.8711 5.7C14.2611 5.31 14.8911 5.31 15.2811 5.7C15.6711 6.09 15.6711 6.72 15.2811 7.11L12.3911 10L15.2811 12.89C15.6611 13.27 15.6611 13.91 15.2811 14.3Z"
    fill="red"
  />
</svg>
